<svg width="40" height="40" viewBox="0 0 40 40" fill="none" xmlns="http://www.w3.org/2000/svg">
<path fill-rule="evenodd" clip-rule="evenodd" d="M30.2406 3.50946C29.899 3.16789 29.3912 3.0537 28.9363 3.21617L4.18754 12.055C3.64241 12.2497 3.30226 12.7932 3.36543 13.3686C3.42859 13.944 3.87854 14.4007 4.45292 14.4725L17.6303 16.1197L19.2775 29.2971C19.3493 29.8715 19.8061 30.3215 20.3815 30.3846C20.9569 30.4478 21.5004 30.1076 21.695 29.5625L30.5339 4.81377C30.6963 4.35885 30.5822 3.85104 30.2406 3.50946ZM27.292 6.45808L21.1069 23.7763L19.9904 14.8449C19.9195 14.2775 19.4726 13.8305 18.9051 13.7596L9.97371 12.6432L27.292 6.45808Z" fill="#87898D"/>
<path d="M37.4373 35.6694L33.0179 31.2501L37.4373 26.8306L35.6695 25.0629L31.2504 29.4825L26.8307 25.0629L25.063 26.8306L29.4824 31.2501L25.0628 35.6693L26.8307 37.4372L31.2504 33.0181L35.6695 37.4372L37.4373 35.6694Z" fill="#87898D"/>
</svg>
