<svg width="16" height="16" viewBox="0 0 16 16" fill="none" xmlns="http://www.w3.org/2000/svg">
<mask id="path-1-inside-1" fill="white">
<path fill-rule="evenodd" clip-rule="evenodd" d="M4.49982 6.5C4.49982 6.47256 4.50013 6.44519 4.50076 6.4179C4.50013 6.38974 4.49982 6.36155 4.49982 6.33333H4.50372C4.59071 4.47773 6.12269 3 7.99982 3C9.87694 3 11.4089 4.47773 11.4959 6.33333H11.4998C11.4998 6.36155 11.4995 6.38974 11.4989 6.4179C11.4995 6.44519 11.4998 6.47256 11.4998 6.5C11.4998 6.83925 11.4543 7.17549 11.3654 7.5C11.2826 7.80245 11.1623 8.0947 11.0062 8.36969L8.57474 12.6537L7.99982 13.6667L7.4249 12.6537L4.99342 8.36969C4.83735 8.0947 4.71699 7.80245 4.6342 7.5C4.54538 7.17549 4.49982 6.83925 4.49982 6.5Z"/>
</mask>
<path d="M4.50076 6.4179L5.5005 6.44091L5.50102 6.41825L5.50051 6.39558L4.50076 6.4179ZM4.49982 6.33333V5.33333H3.49982V6.33333H4.49982ZM4.50372 6.33333V7.33333H5.45793L5.50262 6.38016L4.50372 6.33333ZM11.4959 6.33333L10.497 6.38016L10.5417 7.33333H11.4959V6.33333ZM11.4998 6.33333H12.4998V5.33333H11.4998V6.33333ZM11.4989 6.4179L10.4991 6.39558L10.4986 6.41824L10.4991 6.44091L11.4989 6.4179ZM11.3654 7.5L10.4009 7.236L11.3654 7.5ZM11.0062 8.36969L11.8759 8.86329L11.8759 8.86329L11.0062 8.36969ZM8.57474 12.6537L7.70505 12.1601L8.57474 12.6537ZM7.99982 13.6667L7.13013 14.1603L7.99982 15.6926L8.8695 14.1603L7.99982 13.6667ZM7.4249 12.6537L8.29458 12.1601L7.4249 12.6537ZM4.99342 8.36969L5.86311 7.87608L5.86311 7.87608L4.99342 8.36969ZM4.6342 7.5L3.66968 7.764L4.6342 7.5ZM3.50103 6.39489C3.50022 6.42985 3.49982 6.46489 3.49982 6.5H5.49982C5.49982 6.48023 5.50004 6.46053 5.5005 6.44091L3.50103 6.39489ZM3.49982 6.33333C3.49982 6.36899 3.50022 6.40462 3.50101 6.44022L5.50051 6.39558C5.50005 6.37485 5.49982 6.3541 5.49982 6.33333H3.49982ZM4.50372 5.33333H4.49982V7.33333H4.50372V5.33333ZM7.99982 2C5.58609 2 3.6167 3.89993 3.50481 6.2865L5.50262 6.38016C5.56472 5.05553 6.65929 4 7.99982 4V2ZM12.4948 6.2865C12.3829 3.89993 10.4135 2 7.99982 2V4C9.34034 4 10.4349 5.05553 10.497 6.38016L12.4948 6.2865ZM11.4998 5.33333H11.4959V7.33333H11.4998V5.33333ZM12.4986 6.44023C12.4994 6.40463 12.4998 6.36899 12.4998 6.33333H10.4998C10.4998 6.3541 10.4996 6.37485 10.4991 6.39558L12.4986 6.44023ZM12.4998 6.5C12.4998 6.46488 12.4994 6.42984 12.4986 6.3949L10.4991 6.44091C10.4996 6.46054 10.4998 6.48024 10.4998 6.5H12.4998ZM10.4998 6.5C10.4998 6.74969 10.4663 6.99715 10.4009 7.236L12.33 7.764C12.4422 7.35383 12.4998 6.92881 12.4998 6.5H10.4998ZM10.4009 7.236C10.34 7.4586 10.2514 7.67369 10.1365 7.87608L11.8759 8.86329C12.0732 8.51571 12.2253 8.1463 12.33 7.764L10.4009 7.236ZM10.1365 7.87608L7.70505 12.1601L9.44442 13.1473L11.8759 8.86329L10.1365 7.87608ZM7.70505 12.1601L7.13013 13.1731L8.8695 14.1603L9.44442 13.1473L7.70505 12.1601ZM8.8695 13.1731L8.29458 12.1601L6.55521 13.1473L7.13013 14.1603L8.8695 13.1731ZM8.29458 12.1601L5.86311 7.87608L4.12374 8.86329L6.55521 13.1473L8.29458 12.1601ZM5.86311 7.87608C5.74824 7.67369 5.65965 7.4586 5.59872 7.236L3.66968 7.764C3.77432 8.1463 3.92646 8.51571 4.12374 8.86329L5.86311 7.87608ZM5.59872 7.236C5.53335 6.99715 5.49982 6.74969 5.49982 6.5H3.49982C3.49982 6.92881 3.55741 7.35383 3.66968 7.764L5.59872 7.236Z" fill="#1783EF" mask="url(#path-1-inside-1)"/>
<path d="M6.99982 6.5C6.99982 5.94772 7.44753 5.5 7.99982 5.5C8.5521 5.5 8.99982 5.94772 8.99982 6.5C8.99982 7.05228 8.5521 7.5 7.99982 7.5C7.44753 7.5 6.99982 7.05228 6.99982 6.5Z" stroke="#1783EF"/>
</svg>
