<svg width="16" height="16" viewBox="0 0 16 16" fill="none" xmlns="http://www.w3.org/2000/svg">
<mask id="path-1-inside-1" fill="white">
<path fill-rule="evenodd" clip-rule="evenodd" d="M2 7.5C2 7.47256 2.00032 7.44519 2.00094 7.4179C2.00032 7.38974 2 7.36155 2 7.33333H2.0039C2.09089 5.47773 3.62287 4 5.5 4C7.37713 4 8.90911 5.47773 8.9961 7.33333H9C9 7.36155 8.99968 7.38974 8.99906 7.4179C8.99968 7.44519 9 7.47256 9 7.5C9 7.83925 8.95444 8.17549 8.86561 8.5C8.78283 8.80245 8.66247 9.0947 8.50639 9.36969L6.07492 13.6537L5.5 14.6667L4.92508 13.6537L2.49361 9.36969C2.33753 9.0947 2.21717 8.80245 2.13439 8.5C2.04556 8.17549 2 7.83925 2 7.5Z"/>
</mask>
<path d="M2.00094 7.4179L3.00068 7.44091L3.0012 7.41825L3.00069 7.39558L2.00094 7.4179ZM2 7.33333V6.33333H1V7.33333H2ZM2.0039 7.33333V8.33333H2.95812L3.0028 7.38016L2.0039 7.33333ZM8.9961 7.33333L7.9972 7.38016L8.04188 8.33333H8.9961V7.33333ZM9 7.33333H10V6.33333H9V7.33333ZM8.99906 7.4179L7.99931 7.39558L7.9988 7.41824L7.99932 7.44091L8.99906 7.4179ZM8.86561 8.5L7.90109 8.236L8.86561 8.5ZM8.50639 9.36969L9.37608 9.86329L9.37608 9.86329L8.50639 9.36969ZM6.07492 13.6537L5.20523 13.1601L6.07492 13.6537ZM5.5 14.6667L4.63031 15.1603L5.5 16.6926L6.36969 15.1603L5.5 14.6667ZM4.92508 13.6537L5.79477 13.1601L4.92508 13.6537ZM2.49361 9.36969L3.36329 8.87608L3.36329 8.87608L2.49361 9.36969ZM2.13439 8.5L1.16986 8.764L2.13439 8.5ZM1.00121 7.39489C1.0004 7.42985 1 7.46489 1 7.5H3C3 7.48023 3.00023 7.46053 3.00068 7.44091L1.00121 7.39489ZM1 7.33333C1 7.36899 1.0004 7.40462 1.00119 7.44022L3.00069 7.39558C3.00023 7.37485 3 7.3541 3 7.33333H1ZM2.0039 6.33333H2V8.33333H2.0039V6.33333ZM5.5 3C3.08627 3 1.11688 4.89993 1.005 7.2865L3.0028 7.38016C3.0649 6.05553 4.15947 5 5.5 5V3ZM9.995 7.2865C9.88312 4.89993 7.91373 3 5.5 3V5C6.84053 5 7.9351 6.05553 7.9972 7.38016L9.995 7.2865ZM9 6.33333H8.9961V8.33333H9V6.33333ZM9.99881 7.44023C9.9996 7.40463 10 7.36899 10 7.33333H8C8 7.3541 7.99977 7.37485 7.99931 7.39558L9.99881 7.44023ZM10 7.5C10 7.46488 9.9996 7.42984 9.99879 7.3949L7.99932 7.44091C7.99977 7.46054 8 7.48024 8 7.5H10ZM8 7.5C8 7.74969 7.96647 7.99715 7.90109 8.236L9.83014 8.764C9.94241 8.35383 10 7.92881 10 7.5H8ZM7.90109 8.236C7.84016 8.4586 7.75158 8.67369 7.63671 8.87608L9.37608 9.86329C9.57336 9.51571 9.7255 9.1463 9.83014 8.764L7.90109 8.236ZM7.63671 8.87608L5.20523 13.1601L6.94461 14.1473L9.37608 9.86329L7.63671 8.87608ZM5.20523 13.1601L4.63031 14.1731L6.36969 15.1603L6.94461 14.1473L5.20523 13.1601ZM6.36969 14.1731L5.79477 13.1601L4.05539 14.1473L4.63031 15.1603L6.36969 14.1731ZM5.79477 13.1601L3.36329 8.87608L1.62392 9.86329L4.05539 14.1473L5.79477 13.1601ZM3.36329 8.87608C3.24842 8.67369 3.15984 8.4586 3.09891 8.236L1.16986 8.764C1.2745 9.1463 1.42664 9.51571 1.62392 9.86329L3.36329 8.87608ZM3.09891 8.236C3.03353 7.99715 3 7.74969 3 7.5H1C1 7.92881 1.05759 8.35383 1.16986 8.764L3.09891 8.236Z" fill="#1783EF" mask="url(#path-1-inside-1)"/>
<path d="M4.5 7.5C4.5 6.94772 4.94772 6.5 5.5 6.5C6.05228 6.5 6.5 6.94772 6.5 7.5C6.5 8.05228 6.05228 8.5 5.5 8.5C4.94772 8.5 4.5 8.05228 4.5 7.5Z" stroke="#1783EF"/>
<path fill-rule="evenodd" clip-rule="evenodd" d="M6 3V2H14V7H12H11.5L9.41667 10.125L10 11L10.6009 10.0986L12 8H14C14.5523 8 15 7.55228 15 7V2C15 1.44772 14.5523 1 14 1H6C5.44772 1 5 1.44772 5 2V3H6Z" fill="#1783EF"/>
</svg>
